<svg xmlns="http://www.w3.org/2000/svg" viewBox="0 0 32 32"><defs><linearGradient id="g" x1="0" y1="0" x2="1" y2="1"><stop offset="0" stop-color="#ff7aa8"/><stop offset="1" stop-color="#7a5cff"/></linearGradient></defs><rect width="32" height="32" rx="8" fill="#111113"/><g transform="translate(4 4) scale(.75)"><path d="M16 5.5c3.2 3 4.8 6.6 4.8 10.2 0 3.6-1.8 6.6-4.8 8.8-3-2.2-4.8-5.2-4.8-8.8 0-3.6 1.6-7.2 4.8-10.2Z" fill="url(#g)"/><path d="M16 24.5c-4.4.2-9.6-2-11.6-7.6 3.6-.6 6.6.4 8.6 2.4M16 24.5c4.4.2 9.6-2 11.6-7.6-3.6-.6-6.6.4-8.6 2.4" stroke="url(#g)" stroke-width="2" fill="none" stroke-linecap="round" stroke-linejoin="round"/></g></svg>
